<mxfile host="app.diagrams.net" modified="2022-06-05T07:34:39.391Z" agent="5.0 (Macintosh; Intel Mac OS X 10_15_7) AppleWebKit/605.1.15 (KHTML, like Gecko) Version/15.5 Safari/605.1.15" etag="cBoSS_igproCEyK7N_XC" version="19.0.0" type="github">
  <diagram id="tNs-qrw640Xdytesdyd3" name="Page-1">
    <mxGraphModel dx="945" dy="795" grid="1" gridSize="10" guides="1" tooltips="1" connect="1" arrows="1" fold="1" page="1" pageScale="1" pageWidth="850" pageHeight="1100" math="0" shadow="0">
      <root>
        <mxCell id="0" />
        <mxCell id="1" parent="0" />
        <mxCell id="Scmeqtese3RsMr9jqzKv-33" style="edgeStyle=orthogonalEdgeStyle;rounded=0;orthogonalLoop=1;jettySize=auto;html=1;entryX=0;entryY=0.5;entryDx=0;entryDy=0;" edge="1" parent="1" source="Scmeqtese3RsMr9jqzKv-1" target="Scmeqtese3RsMr9jqzKv-2">
          <mxGeometry relative="1" as="geometry" />
        </mxCell>
        <mxCell id="Scmeqtese3RsMr9jqzKv-34" style="edgeStyle=orthogonalEdgeStyle;rounded=0;orthogonalLoop=1;jettySize=auto;html=1;entryX=0;entryY=0.5;entryDx=0;entryDy=0;" edge="1" parent="1" source="Scmeqtese3RsMr9jqzKv-1" target="Scmeqtese3RsMr9jqzKv-7">
          <mxGeometry relative="1" as="geometry" />
        </mxCell>
        <mxCell id="Scmeqtese3RsMr9jqzKv-1" value="Noun" style="rounded=1;whiteSpace=wrap;html=1;" vertex="1" parent="1">
          <mxGeometry x="40" y="530" width="120" height="60" as="geometry" />
        </mxCell>
        <mxCell id="Scmeqtese3RsMr9jqzKv-31" style="edgeStyle=orthogonalEdgeStyle;rounded=0;orthogonalLoop=1;jettySize=auto;html=1;exitX=1;exitY=0.5;exitDx=0;exitDy=0;entryX=0;entryY=0.5;entryDx=0;entryDy=0;" edge="1" parent="1" source="Scmeqtese3RsMr9jqzKv-2" target="Scmeqtese3RsMr9jqzKv-3">
          <mxGeometry relative="1" as="geometry" />
        </mxCell>
        <mxCell id="Scmeqtese3RsMr9jqzKv-32" style="edgeStyle=orthogonalEdgeStyle;rounded=0;orthogonalLoop=1;jettySize=auto;html=1;exitX=1;exitY=0.5;exitDx=0;exitDy=0;entryX=0;entryY=0.5;entryDx=0;entryDy=0;" edge="1" parent="1" source="Scmeqtese3RsMr9jqzKv-2" target="Scmeqtese3RsMr9jqzKv-26">
          <mxGeometry relative="1" as="geometry" />
        </mxCell>
        <mxCell id="Scmeqtese3RsMr9jqzKv-2" value="Verb" style="rounded=1;whiteSpace=wrap;html=1;" vertex="1" parent="1">
          <mxGeometry x="200" y="200" width="130" height="60" as="geometry" />
        </mxCell>
        <mxCell id="Scmeqtese3RsMr9jqzKv-10" value="" style="edgeStyle=orthogonalEdgeStyle;rounded=0;orthogonalLoop=1;jettySize=auto;html=1;" edge="1" parent="1" source="Scmeqtese3RsMr9jqzKv-3" target="Scmeqtese3RsMr9jqzKv-9">
          <mxGeometry relative="1" as="geometry" />
        </mxCell>
        <mxCell id="Scmeqtese3RsMr9jqzKv-15" style="edgeStyle=orthogonalEdgeStyle;rounded=0;orthogonalLoop=1;jettySize=auto;html=1;exitX=1;exitY=0.5;exitDx=0;exitDy=0;entryX=0;entryY=0.5;entryDx=0;entryDy=0;" edge="1" parent="1" source="Scmeqtese3RsMr9jqzKv-3" target="Scmeqtese3RsMr9jqzKv-13">
          <mxGeometry relative="1" as="geometry" />
        </mxCell>
        <mxCell id="Scmeqtese3RsMr9jqzKv-3" value="-en" style="rounded=1;whiteSpace=wrap;html=1;" vertex="1" parent="1">
          <mxGeometry x="390" y="20" width="120" height="60" as="geometry" />
        </mxCell>
        <mxCell id="Scmeqtese3RsMr9jqzKv-12" value="" style="edgeStyle=orthogonalEdgeStyle;rounded=0;orthogonalLoop=1;jettySize=auto;html=1;" edge="1" parent="1" source="Scmeqtese3RsMr9jqzKv-4" target="Scmeqtese3RsMr9jqzKv-11">
          <mxGeometry relative="1" as="geometry" />
        </mxCell>
        <mxCell id="Scmeqtese3RsMr9jqzKv-4" value="-ing" style="rounded=1;whiteSpace=wrap;html=1;" vertex="1" parent="1">
          <mxGeometry x="390" y="160" width="120" height="60" as="geometry" />
        </mxCell>
        <mxCell id="Scmeqtese3RsMr9jqzKv-25" value="" style="edgeStyle=orthogonalEdgeStyle;rounded=0;orthogonalLoop=1;jettySize=auto;html=1;" edge="1" parent="1" source="Scmeqtese3RsMr9jqzKv-5" target="Scmeqtese3RsMr9jqzKv-24">
          <mxGeometry relative="1" as="geometry" />
        </mxCell>
        <mxCell id="Scmeqtese3RsMr9jqzKv-5" value="-atie, -eren, -age" style="rounded=1;whiteSpace=wrap;html=1;" vertex="1" parent="1">
          <mxGeometry x="390" y="300" width="120" height="60" as="geometry" />
        </mxCell>
        <mxCell id="Scmeqtese3RsMr9jqzKv-30" value="" style="edgeStyle=orthogonalEdgeStyle;rounded=0;orthogonalLoop=1;jettySize=auto;html=1;" edge="1" parent="1" source="Scmeqtese3RsMr9jqzKv-6" target="Scmeqtese3RsMr9jqzKv-29">
          <mxGeometry relative="1" as="geometry" />
        </mxCell>
        <mxCell id="Scmeqtese3RsMr9jqzKv-6" value="-sel" style="rounded=1;whiteSpace=wrap;html=1;" vertex="1" parent="1">
          <mxGeometry x="390" y="370" width="120" height="60" as="geometry" />
        </mxCell>
        <mxCell id="Scmeqtese3RsMr9jqzKv-7" value="Adj" style="rounded=1;whiteSpace=wrap;html=1;" vertex="1" parent="1">
          <mxGeometry x="200" y="740" width="120" height="60" as="geometry" />
        </mxCell>
        <mxCell id="Scmeqtese3RsMr9jqzKv-21" value="" style="edgeStyle=orthogonalEdgeStyle;rounded=0;orthogonalLoop=1;jettySize=auto;html=1;" edge="1" parent="1" source="Scmeqtese3RsMr9jqzKv-8" target="Scmeqtese3RsMr9jqzKv-20">
          <mxGeometry relative="1" as="geometry" />
        </mxCell>
        <mxCell id="Scmeqtese3RsMr9jqzKv-8" value="ge-" style="rounded=1;whiteSpace=wrap;html=1;" vertex="1" parent="1">
          <mxGeometry x="390" y="230" width="120" height="60" as="geometry" />
        </mxCell>
        <mxCell id="Scmeqtese3RsMr9jqzKv-9" value="het word: regular&lt;br&gt;koken - het koken" style="whiteSpace=wrap;html=1;rounded=1;" vertex="1" parent="1">
          <mxGeometry x="590" y="20" width="120" height="60" as="geometry" />
        </mxCell>
        <mxCell id="Scmeqtese3RsMr9jqzKv-11" value="de word: &lt;br&gt;wandelen - de wandeling" style="whiteSpace=wrap;html=1;rounded=1;" vertex="1" parent="1">
          <mxGeometry x="590" y="160" width="120" height="60" as="geometry" />
        </mxCell>
        <mxCell id="Scmeqtese3RsMr9jqzKv-13" value="de word: irregular: slaan - de slag&lt;br&gt;vallen - de val" style="whiteSpace=wrap;html=1;rounded=1;" vertex="1" parent="1">
          <mxGeometry x="590" y="90" width="120" height="60" as="geometry" />
        </mxCell>
        <mxCell id="Scmeqtese3RsMr9jqzKv-20" value="praten - het gepraat" style="whiteSpace=wrap;html=1;rounded=1;" vertex="1" parent="1">
          <mxGeometry x="590" y="230" width="120" height="60" as="geometry" />
        </mxCell>
        <mxCell id="Scmeqtese3RsMr9jqzKv-24" value="de word" style="whiteSpace=wrap;html=1;rounded=1;" vertex="1" parent="1">
          <mxGeometry x="590" y="300" width="120" height="60" as="geometry" />
        </mxCell>
        <mxCell id="Scmeqtese3RsMr9jqzKv-28" value="" style="edgeStyle=orthogonalEdgeStyle;rounded=0;orthogonalLoop=1;jettySize=auto;html=1;" edge="1" parent="1" source="Scmeqtese3RsMr9jqzKv-26" target="Scmeqtese3RsMr9jqzKv-27">
          <mxGeometry relative="1" as="geometry" />
        </mxCell>
        <mxCell id="Scmeqtese3RsMr9jqzKv-26" value="-st" style="rounded=1;whiteSpace=wrap;html=1;" vertex="1" parent="1">
          <mxGeometry x="390" y="440" width="120" height="60" as="geometry" />
        </mxCell>
        <mxCell id="Scmeqtese3RsMr9jqzKv-27" value="de word: &lt;br&gt;komen - de komst" style="whiteSpace=wrap;html=1;rounded=1;" vertex="1" parent="1">
          <mxGeometry x="590" y="440" width="120" height="60" as="geometry" />
        </mxCell>
        <mxCell id="Scmeqtese3RsMr9jqzKv-29" value="dek - deksel" style="whiteSpace=wrap;html=1;rounded=1;" vertex="1" parent="1">
          <mxGeometry x="590" y="370" width="120" height="60" as="geometry" />
        </mxCell>
      </root>
    </mxGraphModel>
  </diagram>
</mxfile>
